#!OML:ASF E:\emotionWalksFemale\Project 1\Capture day 1\Session 1\Female1.ASF
:FULLY-SPECIFIED
:DEGREES
601
root 9.33702 15.5211 8.10996 -355.125 -96.8329 -4.67759
lowerback 11.6302 0.25252 0.463917
upperback -4.94466 0.372008 -0.174016
thorax -11.9396 0.121002 -0.530123
lowerneck -8.14741 -0.043545 -3.12294
upperneck 6.75101 0.116382 2.18709
head 3.6529 0.0683087 1.28771
rclavicle -4.66523e-015 1.49089e-016
rhumerus -56.6356 6.2222 -75.4255
rradius 32.1886
rwrist 16.5514
rhand 8.33244 -53.563
rfingers 7.12502
rthumb 33.5431 -80.4471
lclavicle -4.66523e-015 1.49089e-016
lhumerus -58.0207 9.76418 54.5687
lradius 29.7873
lwrist -16.5947
lhand 4.83548 -35.4819
lfingers 7.12502
lthumb 30.213 -7.93345
rfemur 2.77555 22.3546 29.6424
rtibia 17.867
rfoot -20.0777 -35.6845
rtoes 19.035
lfemur 0.169961 -22.1572 -27.4269
ltibia 21.4205
lfoot -27.9438 24.2146
ltoes -3.60836
602
root 9.35161 15.5337 8.10977 -360.907 -96.7886 0.920868
lowerback 11.8326 0.176497 1.23648
upperback -4.87222 0.424756 0.0255553
thorax -11.9762 0.0965216 -0.761195
lowerneck -8.17996 0.0147631 -2.83728
upperneck 6.78989 0.181339 1.95483
head 3.66832 0.0978665 1.16295
rclavicle 1.35111e-014 2.5842e-015
rhumerus -55.2512 2.66627 -73.8041
rradius 31.1827
rwrist 19.1019
rhand 6.14298 -53.6911
rfingers 7.12502
rthumb 31.4596 -81.004
lclavicle 1.35111e-014 2.5842e-015
lhumerus -57.0144 12.8831 53.7214
lradius 29.1446
lwrist -19.4196
lhand 0.620564 -36.4174
lfingers 7.12502
lthumb 26.1846 -8.2034
rfemur 2.80345 20.433 30.0679
rtibia 17.6212
rfoot -18.0919 -34.6475
rtoes 14.764
lfemur 0.300675 -22.2682 -26.7875
ltibia 21.6346
lfoot -27.1316 24.8048
ltoes -8.79588
603
root 9.35673 15.539 8.11233 -362.805 -96.9861 2.7777
lowerback 11.5663 0.159925 1.54477
upperback -4.82168 0.460708 0.139308
thorax -11.7564 0.097268 -0.81693
lowerneck -8.24702 0.0988547 -2.66055
upperneck 7.07938 0.286041 1.78548
head 3.77923 0.145251 1.08381
rclavicle 4.65902e-015 -9.93923e-017
rhumerus -54.0702 -1.11508 -72.0589
rradius 30.2897
rwrist 22.2539
rhand 3.98926 -53.8184
rfingers 7.12502
rthumb 29.4055 -81.5117
lclavicle 4.65902e-015 -9.93923e-017
lhumerus -56.2618 15.9544 53.1579
lradius 28.7674
lwrist -22.5496
lhand -3.43375 -36.1814
lfingers 7.12502
lthumb 22.2976 -7.44789
rfemur 2.67883 20.2369 30.2593
rtibia 17.8501
rfoot -17.3001 -34.6374
rtoes 12.7403
lfemur 0.381495 -22.492 -26.6664
ltibia 21.6856
lfoot -27.1026 25.1794
ltoes -9.42009
604
root 9.36183 15.5417 8.11044 -360.915 -97.1451 0.700889
lowerback 11.2634 0.192628 1.21154
upperback -4.71755 0.447433 0.160429
thorax -11.458 0.120457 -0.601031
lowerneck -8.40067 0.164676 -2.64394
upperneck 7.6456 0.369611 1.78
head 4.00847 0.183197 1.09049
rclavicle -1.85491e-014 -4.57205e-015
rhumerus -53.1218 -5.16473 -70.2052
rradius 29.5123
rwrist 25.5444
rhand 2.01526 -53.8159
rfingers 7.12502
rthumb 27.5192 -81.8248
lclavicle -1.85491e-014 -4.57205e-015
lhumerus -55.5525 18.7581 53.0328
lradius 28.6718
lwrist -25.3126
lhand -6.01785 -34.9488
lfingers 7.12502
lthumb 19.8152 -5.93888
rfemur 2.74014 21.6707 30.3487
rtibia 18.4888
rfoot -17.5334 -35.8505
rtoes 13.2548
lfemur 0.650233 -22.3026 -27.014
ltibia 21.5002
lfoot -27.447 24.8467
ltoes -6.44575
605
root 9.36717 15.5591 8.10552 -357.427 -97.0822 -3.05054
lowerback 11.0282 0.203484 0.659356
upperback -4.60903 0.364181 0.0826885
thorax -11.1977 0.120439 -0.355198
lowerneck -8.66944 0.171188 -2.91747
upperneck 8.41905 0.370913 2.16393
head 4.3427 0.18886 1.28065
rclavicle -7.21837e-015 -3.37934e-015
rhumerus -52.4478 -9.04492 -68.6556
rradius 28.9275
rwrist 28.3763
rhand 0.641579 -53.8359
rfingers 7.12502
rthumb 26.2048 -82.0469
lclavicle -7.21837e-015 -3.37934e-015
lhumerus -54.9533 21.8711 52.615
lradius 28.7489
lwrist -28.2487
lhand -6.64005 -34.0867
lfingers 7.12502
lthumb 19.217 -5.01612
rfemur 2.06773 17.5798 29.0297
rtibia 19.3423
rfoot -16.7291 -32.4101
rtoes 8.87105
lfemur 1.02618 -21.9191 -27.4845
ltibia 21.1313
lfoot -27.3077 24.238
ltoes -5.16312
606
root 9.37958 15.5609 8.09993 -353.944 -96.8302 -6.76102
lowerback 10.7693 0.141327 0.160292
upperback -4.52422 0.194661 0.00887645
thorax -10.9501 0.0733183 -0.118117
lowerneck -8.86512 0.183969 -3.10525
upperneck 9.58748 0.357388 2.5385
head 4.30823 0.199667 1.30691
rclavicle 1.99406e-014 2.38542e-015
rhumerus -51.8712 -11.8575 -68.0266
rradius 28.7072
rwrist 30.0785
rhand 0.226407 -54.206
rfingers 7.12502
rthumb 25.8072 -82.4754
lclavicle 1.99406e-014 2.38542e-015
lhumerus -54.3716 24.7127 52.6916
lradius 29.0589
lwrist -29.8921
lhand -5.72186 -33.9163
lfingers 7.12502
lthumb 20.0997 -4.93599
rfemur 1.87546 17.9308 28.7045
rtibia 20.1912
rfoot -17.7096 -32.6377
rtoes 10.7073
lfemur 1.34478 -21.5931 -27.8422
ltibia 20.654
lfoot -26.7186 23.7956
ltoes -6.34133
607
root 9.3902 15.5572 8.09876 -351.35 -96.5242 -9.46084
lowerback 10.4416 0.0226565 -0.168174
upperback -4.54679 -0.012214 0.0496084
thorax -10.7798 -0.00132359 0.152482
lowerneck -8.9129 0.231224 -3.07955
upperneck 10.4679 0.416075 2.38129
head 4.58502 0.212808 1.26247
rclavicle 2.76186e-014 5.56597e-015
rhumerus -51.3981 -13.3356 -68.3225
rradius 28.9416
rwrist 30.0962
rhand 0.0546536 -54.6915
rfingers 7.12502
rthumb 25.6427 -82.9847
lclavicle 2.76186e-014 5.56597e-015
lhumerus -53.3334 25.8103 54.7612
lradius 29.5358
lwrist -28.5669
lhand -4.6592 -33.1905
lfingers 7.12502
lthumb 21.1208 -4.32088
rfemur 1.63908 18.2119 28.4591
rtibia 20.8408
rfoot -19.281 -32.6417
rtoes 14.5928
lfemur 1.50037 -21.2263 -27.9849
ltibia 20.1908
lfoot -25.97 23.3823
ltoes -7.13708
608
root 9.39088 15.5559 8.10653 -348.501 -96.4022 -12.3887
lowerback 10.11 -0.0118122 -0.385313
upperback -4.65757 -0.0918908 0.0641944
thorax -10.7047 -0.0251022 0.305958
lowerneck -8.92096 0.236747 -3.14658
upperneck 11.4248 0.415637 2.32082
head 4.88108 0.195856 1.25953
rclavicle 3.08116e-015 -1.98785e-016
rhumerus -51.1369 -13.7228 -69.2934
rradius 29.5977
rwrist 28.5181
rhand -0.361034 -54.7735
rfingers 7.12502
rthumb 25.2445 -83.1235
lclavicle 3.08116e-015 -1.98785e-016
lhumerus -51.9232 25.5478 57.8842
lradius 30.0041
lwrist -26.1748
lhand -3.48374 -32.3488
lfingers 7.12502
lthumb 22.2496 -3.60954
rfemur 1.51332 17.7912 27.9956
rtibia 21.205
rfoot -20.1919 -31.9797
rtoes 16.7705
lfemur 1.6188 -20.968 -28.2677
ltibia 19.9401
lfoot -25.5435 22.9953
ltoes -6.33581
609
root 9.38716 15.5617 8.11235 -346.923 -96.2837 -13.9628
lowerback 9.73121 -0.0278295 -0.456204
upperback -4.80785 -0.122956 0.105816
thorax -10.6453 -0.0351908 0.396331
lowerneck -9.08817 0.190353 -3.42982
upperneck 12.5103 0.340132 2.53792
head 5.24621 0.148658 1.37484
rclavicle 3.35449e-015 1.98785e-015
rhumerus -50.8512 -13.494 -70.5324
rradius 30.4474
rwrist 26.8086
rhand 0.299158 -54.47
rfingers 7.12502
rthumb 25.8769 -82.7293
lclavicle 3.35449e-015 1.98785e-015
lhumerus -50.2539 24.6925 61.2549
lradius 30.2557
lwrist -23.8371
lhand -2.15603 -32.0537
lfingers 7.12502
lthumb 23.5237 -3.47216
rfemur 1.37534 17.1761 27.6808
rtibia 21.4307
rfoot -19.9997 -31.5046
rtoes 15.5363
lfemur 1.67293 -20.797 -28.3639
ltibia 19.745
lfoot -24.2405 23.4264
ltoes -12.0911
610
root 9.38329 15.5686 8.11238 -345.439 -96.0327 -15.5204
lowerback 9.39203 -0.0926913 -0.456699
upperback -4.8881 -0.215339 0.0729802
thorax -10.5309 -0.0825847 0.377706
lowerneck -9.20038 0.145832 -3.49304
upperneck 13.368 0.252331 2.63346
head 5.53452 0.0987576 1.41418
rclavicle -3.13086e-015 1.59028e-015
rhumerus -50.3768 -12.6675 -72.3544
rradius 31.4888
rwrist 24.8419
rhand 3.53533 -52.5475
rfingers 7.12502
rthumb 28.972 -80.3161
lclavicle -3.13086e-015 1.59028e-015
lhumerus -47.9909 22.9203 65.0263
lradius 30.1646
lwrist -21.0464
lhand -1.17785 -31.8272
lfingers 7.12502
lthumb 24.4617 -3.36915
rfemur 1.53966 17.8903 27.8128
rtibia 21.5733
rfoot -20.1175 -32.4283
rtoes 15.3519
lfemur 1.80236 -20.6269 -28.3966
ltibia 19.5183
lfoot -22.5316 24.0236
ltoes -20.4426
611
root 9.3771 15.5675 8.11196 -341.869 -95.7773 -19.3969
lowerback 9.14942 -0.165171 -0.523933
upperback -4.82304 -0.340163 -0.135349
thorax -10.3132 -0.147452 0.213211
lowerneck -9.24251 0.101538 -3.20726
upperneck 13.877 0.165654 2.41118
head 5.70444 0.0481539 1.29373
rclavicle -1.47846e-014 5.76476e-015
rhumerus -49.8129 -11.2331 -74.7495
rradius 32.7501
rwrist 22.4935
rhand 2.45707 -52.1134
rfingers 7.12502
rthumb 27.9416 -80.0542
lclavicle -1.47846e-014 5.76476e-015
lhumerus -45.5337 20.5775 68.6492
lradius 30.0813
lwrist -18.3492
lhand -0.0622897 -31.6124
lfingers 7.12502
lthumb 25.5307 -3.30305
rfemur 2.19985 19.9952 28.2018
rtibia 21.6227
rfoot -20.4258 -34.8913
rtoes 15.6618
lfemur 2.18682 -20.6554 -28.7785
ltibia 19.3239
lfoot -22.0659 23.8621
ltoes -22.1703
